<svg xmlns="http://www.w3.org/2000/svg" width="18.159" height="23.766" viewBox="0 0 18.159 23.766">
  <path id="パス_1024" data-name="パス 1024" d="M45.473,36.785a5.661,5.661,0,0,0-1.98-2.1,2.367,2.367,0,0,0-2.49.164,5.616,5.616,0,0,0-1.749,1.838,9.868,9.868,0,0,1-4.5-4.091,9.808,9.808,0,0,1-1.694-5.943,5.593,5.593,0,0,0,2.4-.744,2.362,2.362,0,0,0,1.256-2.156,5.7,5.7,0,0,0-1-2.709,5.661,5.661,0,0,0-1.98-2.1,2.366,2.366,0,0,0-2.49.164,5.951,5.951,0,0,0-2.209,2.746,5.253,5.253,0,0,0-.284.946,7.259,7.259,0,0,0-.332,1.429c-.4,3.092.262,6.468,2.823,10.563s5.3,6.174,8.258,7.168a7.181,7.181,0,0,0,1.506.337,5.658,5.658,0,0,0,.763.116,5.936,5.936,0,0,0,3.443-.753A2.358,2.358,0,0,0,46.474,39.5a5.7,5.7,0,0,0-1-2.709Z" transform="translate(-28.315 -18.658)" fill="#fff"/>
</svg>
